<svg version="1.1" xmlns="http://www.w3.org/2000/svg" style="display: block;" viewBox="0 0 2048 1365" width="1248" height="832" preserveAspectRatio="none">
<defs>
	<linearGradient id="Gradient1" gradientUnits="userSpaceOnUse" x1="1616" y1="600.401" x2="1750.2" y2="725.987">
		<stop class="stop0" offset="0" stop-opacity="1" stop-color="rgb(5,19,62)"/>
		<stop class="stop1" offset="1" stop-opacity="1" stop-color="rgb(11,76,130)"/>
	</linearGradient>
	<linearGradient id="Gradient2" gradientUnits="userSpaceOnUse" x1="1355.7" y1="662.62" x2="1323.45" y2="831.6">
		<stop class="stop0" offset="0" stop-opacity="1" stop-color="rgb(28,71,123)"/>
		<stop class="stop1" offset="1" stop-opacity="1" stop-color="rgb(42,94,153)"/>
	</linearGradient>
	<linearGradient id="Gradient3" gradientUnits="userSpaceOnUse" x1="1467.43" y1="507.844" x2="1414.57" y2="699.156">
		<stop class="stop0" offset="0" stop-opacity="1" stop-color="rgb(35,85,136)"/>
		<stop class="stop1" offset="1" stop-opacity="1" stop-color="rgb(46,109,160)"/>
	</linearGradient>
	<linearGradient id="Gradient4" gradientUnits="userSpaceOnUse" x1="1734.92" y1="439.372" x2="1635.89" y2="221.079">
		<stop class="stop0" offset="0" stop-opacity="1" stop-color="rgb(51,136,180)"/>
		<stop class="stop1" offset="1" stop-opacity="1" stop-color="rgb(64,159,188)"/>
	</linearGradient>
	<linearGradient id="Gradient5" gradientUnits="userSpaceOnUse" x1="983.049" y1="522.144" x2="981.895" y2="554.422">
		<stop class="stop0" offset="0" stop-opacity="1" stop-color="rgb(15,17,22)"/>
		<stop class="stop1" offset="1" stop-opacity="1" stop-color="rgb(11,16,36)"/>
	</linearGradient>
	<linearGradient id="Gradient6" gradientUnits="userSpaceOnUse" x1="941.381" y1="602.869" x2="1125.38" y2="476.861">
		<stop class="stop0" offset="0" stop-opacity="1" stop-color="rgb(96,85,74)"/>
		<stop class="stop1" offset="1" stop-opacity="1" stop-color="rgb(155,144,127)"/>
	</linearGradient>
	<linearGradient id="Gradient7" gradientUnits="userSpaceOnUse" x1="436.773" y1="204.702" x2="984.221" y2="1091">
		<stop class="stop0" offset="0" stop-opacity="1" stop-color="rgb(0,14,62)"/>
		<stop class="stop1" offset="1" stop-opacity="1" stop-color="rgb(7,41,83)"/>
	</linearGradient>
</defs>
<path transform="translate(0,0)" fill="rgb(255,255,255)" d="M 0 0 L 2048 0 L 2048 1365 L 0 1365 L 0 0 z"/>
<path transform="translate(0,0)" fill="url(#Gradient7)" d="M 517.115 154.031 C 528.965 158.521 540.937 162.685 553.016 166.519 C 587.249 177.833 621.566 191.072 656.578 199.771 C 660.969 200.862 677.113 203.4 680.287 204.845 C 707.626 207.06 735.048 208.088 762.475 207.926 C 796.991 208.046 810.768 206.73 844.798 216.258 C 888.402 228.466 917.365 239.311 955.77 263.56 C 949.031 247.54 944.94 233.831 939.791 217.241 C 960.613 238.7 982.358 259.243 1004.96 278.812 C 1019.89 291.735 1035.45 303.294 1049.56 317.105 C 1061.3 328.603 1059.98 340.365 1063.16 355.528 C 1075.01 366.375 1090.53 375.909 1103.96 384.884 C 1130.46 402.588 1156.82 418.075 1183.01 436.345 C 1177.29 466.072 1186.38 465.09 1191.67 492.326 C 1203.68 554.085 1184.74 598.379 1143.78 644.461 C 1131.07 658.759 1116.53 675.181 1101.92 688.087 C 1112.76 663.803 1109.21 639.416 1108.95 613.137 C 1108.75 593.058 1090.3 601.84 1077.49 601.436 C 1037.37 604.287 996.379 607.525 959.713 626.043 C 951.686 630.032 944.282 635.167 937.734 641.288 C 927.444 650.884 875.108 715.674 874.251 725.359 C 871.872 752.26 876.045 805.564 878.683 834.323 C 881.18 861.549 930.829 915.281 946.124 941.344 C 939.279 951.921 913.031 987.021 904.171 996.428 C 867.338 1039.33 830.73 1084.68 793.73 1126.95 C 783.685 1140.21 768.143 1157.23 756.98 1170.28 L 685.098 1254.14 C 670.858 1270.74 654.061 1289.25 641.874 1307.1 C 636.567 1302.69 627.315 1293.06 621.964 1287.87 L 579.381 1246.5 L 471.882 1143.53 C 471.915 1096.07 473.865 1048.98 474.184 1001.57 C 474.338 978.61 473.479 955.792 473.023 932.863 L 471.045 932.322 C 467.37 935.732 458.795 997.652 456.424 1008.14 C 450.149 1035.9 443.42 1064.74 437.232 1092.48 C 429.957 1125.18 423.296 1158.02 417.252 1190.97 L 358.63 1076.64 C 352.872 1065.31 329.024 1014.42 323.001 1009.15 C 305.046 993.529 285.365 973.946 268.257 957.273 C 254.908 944.263 234.154 924.642 222.478 910.609 C 223.374 892.663 250.805 826.603 259.167 805.22 C 260.787 801.756 262.607 797.773 265.882 795.741 C 283.021 785.107 301.291 775.333 318.651 765.049 C 344.364 749.596 369.406 733.053 393.708 715.463 C 415.526 696.824 436.006 687.652 461.172 674.228 L 458.453 671.336 L 299.708 738.727 C 264.26 753.728 224.118 769.728 189.695 786.086 C 199.515 770.757 209.942 751.978 219.498 736.123 L 289.819 620.989 L 346.723 530.159 C 356.419 514.575 369.717 494.367 377.764 478.408 C 361.791 473.818 344.626 469.155 328.964 463.791 C 304.541 455.427 280.919 444.681 256.725 435.674 C 288.633 417.095 328.798 397.471 362.026 379.777 C 405.86 356.081 449.18 331.447 491.957 305.891 C 461.178 284.625 427.463 251.333 395.443 227.915 C 416.39 230.227 447.479 229.507 469.357 229.959 C 521.66 231.038 574.573 229.159 626.784 229.144 C 611.323 218.323 595.835 208.292 579.767 198.41 C 559.318 185.835 535.835 173.702 515.974 160.563 L 515.077 157.97 C 515.699 156.302 516.215 155.555 517.115 154.031 z"/>
<path transform="translate(0,0)" fill="rgb(37,108,166)" d="M 675.126 904.764 C 712.033 866.178 756.909 817.879 791.294 777.62 C 786.514 830.895 780.815 883.824 776.382 937.115 C 773.777 968.425 773.75 1002.79 770.132 1033.65 C 773.672 1027.69 777.655 1020.47 780.523 1014.15 C 796.518 978.92 816.168 943.794 831.585 908.497 C 855.484 938.051 879.681 967.362 904.171 996.428 C 867.338 1039.33 830.73 1084.68 793.73 1126.95 C 789.997 1123.07 767.472 1079.5 763.474 1072.01 C 733.738 1016.41 704.288 960.663 675.126 904.764 z"/>
<path transform="translate(0,0)" fill="rgb(13,37,79)" d="M 514.773 798.104 C 507.512 815.909 502.451 837.028 495.671 855.334 C 488.462 874.795 482.496 895.186 475.625 914.777 C 473.786 920.021 473.792 930.683 473.023 932.863 L 471.045 932.322 C 467.37 935.732 458.795 997.652 456.424 1008.14 C 450.149 1035.9 443.42 1064.74 437.232 1092.48 C 429.957 1125.18 423.296 1158.02 417.252 1190.97 L 358.63 1076.64 C 352.872 1065.31 329.024 1014.42 323.001 1009.15 C 324.258 1003.27 323.408 998.62 323.195 992.51 C 324.201 990.858 324.893 990.085 324.983 988.147 L 322.64 987.498 L 321.806 986.013 C 325.447 985.864 340.378 969.684 343.921 966.137 L 383.41 926.638 C 390.576 919.511 398.042 911.67 405.49 904.913 C 443.253 870.651 477.779 833.025 514.773 798.104 z"/>
<path transform="translate(0,0)" fill="rgb(37,108,166)" d="M 553.016 166.519 C 587.249 177.833 621.566 191.072 656.578 199.771 C 660.969 200.862 677.113 203.4 680.287 204.845 C 682.5 207.886 749.254 224.98 758.425 227.576 L 844.905 252.956 C 885.316 264.431 908.064 269.291 944.704 289.482 C 977.313 307.451 997.762 318.956 1027.08 343.354 C 1011.11 353.401 997.257 365.317 982.862 377.416 C 971.9 370.492 950.966 352.795 941.214 344.039 C 940.818 349.86 940.214 355.868 939.708 361.699 C 860.4 324.639 781.681 286.33 703.58 246.787 C 674.295 231.62 645.178 213.802 614.793 198.147 C 604.094 192.605 593.2 187.45 582.131 182.691 C 573.592 179.024 557.81 174.181 553.016 166.519 z"/>
<path transform="translate(0,0)" fill="rgb(30,78,131)" d="M 516.642 642.182 C 506.002 680.009 496.509 718.525 482.4 755.271 C 480.893 759.197 479.408 762.357 478.823 766.581 C 467.625 777.963 441.739 799.161 428.453 811.108 C 408.906 828.883 389.128 846.401 369.124 863.66 C 359.717 871.844 347.7 882.951 337.8 890.129 C 343.709 870.863 394.994 721.186 393.708 715.463 C 415.526 696.824 436.006 687.652 461.172 674.228 C 467.518 671.291 474.745 667.78 479.58 662.692 C 483.11 661.126 486.28 660.714 488.902 659.5 C 498.305 655.149 508.657 648.698 516.642 642.182 z"/>
<path transform="translate(0,0)" fill="rgb(19,55,104)" d="M 259.167 805.22 C 262.905 809.351 262.657 804.835 265.228 812.823 C 283.532 869.696 305.534 928.642 321.806 986.013 L 322.64 987.498 L 324.983 988.147 C 324.893 990.085 324.201 990.858 323.195 992.51 C 323.408 998.62 324.258 1003.27 323.001 1009.15 C 305.046 993.529 285.365 973.946 268.257 957.273 C 254.908 944.263 234.154 924.642 222.478 910.609 C 223.374 892.663 250.805 826.603 259.167 805.22 z"/>
<path transform="translate(0,0)" fill="rgb(37,108,166)" d="M 516.642 642.182 L 518.371 641.326 C 525.221 645.876 535.215 661.394 541.956 666.056 C 564.432 681.6 591.897 697.467 615.701 710.847 C 590.052 722.457 569.337 731.516 542.843 741.194 C 523.743 748.171 496.219 757.573 478.823 766.581 C 479.408 762.357 480.893 759.197 482.4 755.271 C 496.509 718.525 506.002 680.009 516.642 642.182 z"/>
<path transform="translate(0,0)" fill="rgb(182,191,210)" d="M 479.58 662.692 C 474.745 667.78 467.518 671.291 461.172 674.228 L 458.453 671.336 C 466.019 667.875 471.757 665.524 479.58 662.692 z"/>
<path transform="translate(0,0)" fill="rgb(30,78,131)" d="M 538.384 323.818 L 538.313 326.761 C 542.956 329.531 582.173 335.234 591.165 337.116 C 627.387 344.697 668.206 354.745 703.313 366.249 C 690.811 369.205 659.989 376.799 648.612 382.518 L 650.612 383.347 C 655.608 391.444 684.171 448.677 684.101 453.868 L 682.335 456.258 C 697.006 484.52 714.284 511.334 729.104 539.48 C 729.664 540.543 729.376 542.079 729.117 543.165 L 727.654 542.73 L 725.995 543.472 C 708.653 549.154 687.867 557.952 670.452 564.667 C 630.331 580.386 590.006 595.58 549.488 610.245 C 555.425 601.885 567.754 585.02 572.061 576.753 C 584.616 552.651 594.865 528.992 608.429 505.378 C 613.013 497.397 637.994 457.257 639.247 452.48 C 635.5 455.06 626.325 471.009 623.213 475.721 C 592.65 522.013 561.106 569.983 527.436 613.947 C 512.821 558.198 501.293 501.474 486.769 445.67 C 485.9 442.329 484.675 438.363 484.823 434.98 L 485.037 434.278 C 489.115 414.997 520.68 349.05 531.242 330.372 C 532.497 328.152 536.166 325.41 538.384 323.818 z"/>
<path transform="translate(0,0)" fill="rgb(30,78,131)" d="M 538.384 323.818 L 538.313 326.761 C 542.956 329.531 582.173 335.234 591.165 337.116 C 627.387 344.697 668.206 354.745 703.313 366.249 C 690.811 369.205 659.989 376.799 648.612 382.518 C 646.561 382.436 646.407 382.176 644.654 382.969 C 607.37 395.88 569.907 408.267 532.275 420.123 C 521.828 423.463 494.131 433.104 485.037 434.278 C 489.115 414.997 520.68 349.05 531.242 330.372 C 532.497 328.152 536.166 325.41 538.384 323.818 z"/>
<path transform="translate(0,0)" fill="rgb(60,149,191)" d="M 644.654 382.969 C 646.407 382.176 646.561 382.436 648.612 382.518 L 650.612 383.347 C 655.608 391.444 684.171 448.677 684.101 453.868 L 682.335 456.258 C 697.006 484.52 714.284 511.334 729.104 539.48 C 729.664 540.543 729.376 542.079 729.117 543.165 L 727.654 542.73 C 720.972 533.457 648.893 453.621 640.209 447.938 C 630.984 448.765 489.509 438.175 484.823 434.98 L 485.037 434.278 C 494.131 433.104 521.828 423.463 532.275 420.123 C 569.907 408.267 607.37 395.88 644.654 382.969 z"/>
<path transform="translate(0,0)" fill="rgb(13,37,79)" d="M 644.654 382.969 C 646.407 382.176 646.561 382.436 648.612 382.518 L 650.612 383.347 C 655.608 391.444 684.171 448.677 684.101 453.868 L 682.335 456.258 C 672.049 434.168 656.107 404.658 644.654 382.969 z"/>
<path transform="translate(0,0)" fill="url(#Gradient6)" d="M 1038.18 384.765 C 1048.23 391.889 1058.51 398.682 1069 405.132 C 1077.04 410.074 1147.18 450.963 1148.77 453.042 L 1148.24 454.567 C 1149.98 459.723 1150.9 477.577 1152.47 486.034 C 1158.4 500.864 1162.62 513.516 1161.48 530 C 1159.91 552.735 1153.15 575.353 1141.65 595.099 C 1140.6 597.978 1140.27 598.817 1138.64 601.399 C 1136.62 605.167 1134.09 610.591 1131.18 613.453 C 1131.58 616.738 1128.07 623.296 1126.53 626.353 C 1125.65 624.209 1130.31 616.717 1130.09 613.459 C 1129.83 609.626 1119.86 604.725 1119.34 601.462 C 1117.87 592.238 1126.27 584.853 1121.76 575.48 C 1116 563.505 1109.39 557.381 1097.71 552.34 C 1095.36 551.643 1094.39 551.444 1092.21 550.207 C 1079.61 552.193 1068.8 540.261 1059.14 548.473 C 1057.24 550.091 1056.45 556.583 1056.96 559.123 C 1060.19 560.343 1067.36 562.793 1069.87 564.563 L 1068.26 565.527 C 1062.75 566.111 1054.16 566.104 1049.66 566.747 C 1057.35 567.034 1061.36 566.57 1069.76 567.424 C 1068.1 567.71 1060.65 569.07 1060.16 569.472 C 1045.95 581.192 1030.5 589.635 1011.38 589.166 C 1003.38 588.97 992.955 586.555 984.243 588.468 L 986.333 590.862 C 983.749 592.523 955.856 587.272 951.598 586.588 C 946.086 580.924 923.234 561.369 917.298 559.185 C 889.131 547.223 901.281 544.806 881.637 530.568 C 880.96 531.252 880.282 531.893 879.586 532.558 C 877.164 531.87 877.325 531.952 875.48 530.234 L 879.287 529.476 L 878.926 528.428 C 875.685 526.579 874.777 526.619 871.069 526.874 L 870.173 525.308 C 868.307 525.368 864.001 525.895 862.898 525.032 C 888.697 511.959 948.11 500.422 968.788 478.05 C 969.617 474.136 998.309 426.446 1002.27 420.861 C 1009.74 411.638 1028.95 393.841 1038.18 384.765 z"/>
<path transform="translate(0,0)" fill="rgb(101,88,75)" d="M 895.497 543.298 C 910.85 541.653 924.53 541.828 939.522 541.223 C 991.014 539.143 1021.5 545.179 1068.26 565.527 C 1062.75 566.111 1054.16 566.104 1049.66 566.747 C 1057.35 567.034 1061.36 566.57 1069.76 567.424 C 1068.1 567.71 1060.65 569.07 1060.16 569.472 C 1045.95 581.192 1030.5 589.635 1011.38 589.166 C 1003.38 588.97 992.955 586.555 984.243 588.468 L 986.333 590.862 C 983.749 592.523 955.856 587.272 951.598 586.588 C 946.086 580.924 923.234 561.369 917.298 559.185 L 919.135 557.773 C 908.463 552.976 904.49 551.227 895.497 543.298 z"/>
<path transform="translate(0,0)" fill="rgb(2,8,41)" d="M 919.135 557.773 C 933.089 563.833 941.642 568.196 954.57 576.206 C 966.494 575.911 979.077 573.61 990.971 572.072 C 1010 569.611 1030.5 567.035 1049.66 566.747 C 1057.35 567.034 1061.36 566.57 1069.76 567.424 C 1068.1 567.71 1060.65 569.07 1060.16 569.472 C 1045.95 581.192 1030.5 589.635 1011.38 589.166 C 1003.38 588.97 992.955 586.555 984.243 588.468 L 986.333 590.862 C 983.749 592.523 955.856 587.272 951.598 586.588 C 946.086 580.924 923.234 561.369 917.298 559.185 L 919.135 557.773 z"/>
<path transform="translate(0,0)" fill="rgb(255,255,255)" d="M 1038.18 384.765 C 1048.23 391.889 1058.51 398.682 1069 405.132 C 1077.04 410.074 1147.18 450.963 1148.77 453.042 L 1148.24 454.567 C 1149.98 459.723 1150.9 477.577 1152.47 486.034 C 1158.4 500.864 1162.62 513.516 1161.48 530 C 1159.91 552.735 1153.15 575.353 1141.65 595.099 C 1140.68 589.987 1145.72 570.747 1146.63 563.748 C 1149.07 544.957 1148.59 532.883 1144.4 514.553 C 1123.86 453.95 1098.91 443.5 1042.95 419.704 C 1024.88 412.021 1017.17 421.558 1002.27 420.861 C 1009.74 411.638 1028.95 393.841 1038.18 384.765 z"/>
<path transform="translate(0,0)" fill="rgb(30,78,131)" d="M 1141.42 465.756 C 1143.31 462.187 1146.05 458.063 1148.24 454.567 C 1149.98 459.723 1150.9 477.577 1152.47 486.034 C 1148.03 478.64 1145.11 473.547 1141.42 465.756 z"/>
<path transform="translate(0,0)" fill="url(#Gradient5)" d="M 878.008 524.235 C 920.076 527.808 970.367 517.638 1011.77 522.632 C 1021.41 523.794 1091.24 546.051 1098.35 550.482 L 1097.71 552.34 C 1095.36 551.643 1094.39 551.444 1092.21 550.207 C 1079.61 552.193 1068.8 540.261 1059.14 548.473 C 1057.24 550.091 1056.45 556.583 1056.96 559.123 C 1060.19 560.343 1067.36 562.793 1069.87 564.563 L 1068.26 565.527 C 1021.5 545.179 991.014 539.143 939.522 541.223 C 924.53 541.828 910.85 541.653 895.497 543.298 C 904.49 551.227 908.463 552.976 919.135 557.773 L 917.298 559.185 C 889.131 547.223 901.281 544.806 881.637 530.568 C 880.96 531.252 880.282 531.893 879.586 532.558 C 877.164 531.87 877.325 531.952 875.48 530.234 L 879.287 529.476 L 878.926 528.428 C 875.685 526.579 874.777 526.619 871.069 526.874 L 870.173 525.308 L 878.008 524.235 z"/>
<path transform="translate(0,0)" fill="rgb(164,155,143)" d="M 1144.4 514.553 C 1148.59 532.883 1149.07 544.957 1146.63 563.748 C 1145.72 570.747 1140.68 589.987 1141.65 595.099 C 1140.6 597.978 1140.27 598.817 1138.64 601.399 C 1137.75 597.593 1135.25 591.582 1134.91 587.912 C 1133.07 567.987 1134.38 547.724 1133.53 527.502 C 1141.81 522.262 1142.96 524.787 1144.4 514.553 z"/>
<path transform="translate(0,0)" fill="rgb(147,149,159)" d="M 968.788 478.05 C 963.613 497.681 895.789 514.443 878.008 524.235 L 870.173 525.308 C 868.307 525.368 864.001 525.895 862.898 525.032 C 888.697 511.959 948.11 500.422 968.788 478.05 z"/>
<path transform="translate(0,0)" fill="rgb(2,8,41)" d="M 1098.35 550.482 C 1126.34 561.965 1129.1 586.409 1131.18 613.453 C 1131.58 616.738 1128.07 623.296 1126.53 626.353 C 1125.65 624.209 1130.31 616.717 1130.09 613.459 C 1129.83 609.626 1119.86 604.725 1119.34 601.462 C 1117.87 592.238 1126.27 584.853 1121.76 575.48 C 1116 563.505 1109.39 557.381 1097.71 552.34 L 1098.35 550.482 z"/>
<path transform="translate(0,0)" fill="rgb(16,15,15)" d="M 1026.06 429.18 C 1041.79 437.928 1044.97 442.749 1063.53 450.301 C 1055.84 449.614 1047.24 448.288 1039.85 450.068 L 1032.94 453.475 C 1020.71 459.618 1015.8 464.173 1005.46 472.919 C 1010.34 456.123 1014.43 442.632 1026.06 429.18 z"/>
<path transform="translate(0,0)" fill="rgb(164,155,143)" d="M 1032.94 453.475 L 1039.85 450.068 C 1051.33 458.842 1097.75 508.53 1095.28 522.204 C 1092.66 521.436 1083.88 508.141 1081.63 504.938 C 1073.78 493.761 1066.87 484.775 1057.24 475.126 C 1053.06 470.936 1035.12 456.429 1032.94 453.475 z"/>
<path transform="translate(0,0)" fill="rgb(30,78,131)" d="M 767.713 360.965 C 786.014 381.601 812.422 418.265 828.667 441.085 C 831.841 442.997 932.655 438.567 946.066 438.029 C 940.041 447.31 933.452 457.954 926.777 466.614 C 910.299 478.765 813.752 529.668 795.273 533.708 C 775.337 538.065 752.242 533.712 733.314 541.397 L 730.194 544.252 L 729.117 543.165 C 729.376 542.079 729.664 540.543 729.104 539.48 C 714.284 511.334 697.006 484.52 682.335 456.258 L 684.101 453.868 C 684.171 448.677 655.608 391.444 650.612 383.347 C 653.506 382.916 656.081 383.104 659 383.178 C 672.77 380.205 686.596 376.11 700.269 373.264 C 722.342 368.669 745.432 364.474 767.713 360.965 z"/>
<path transform="translate(0,0)" fill="rgb(19,55,104)" d="M 828.667 441.085 C 831.841 442.997 932.655 438.567 946.066 438.029 C 940.041 447.31 933.452 457.954 926.777 466.614 C 910.299 478.765 813.752 529.668 795.273 533.708 C 775.337 538.065 752.242 533.712 733.314 541.397 C 736.028 536.088 753.158 518.901 758.211 513.217 C 775.041 494.281 796.579 472.877 811.204 452.275 C 816.762 448.674 820.504 447.109 826.487 444.477 L 828.667 441.085 z"/>
<path transform="translate(0,0)" fill="rgb(37,108,166)" d="M 828.667 441.085 C 831.841 442.997 932.655 438.567 946.066 438.029 C 940.041 447.31 933.452 457.954 926.777 466.614 C 922.708 465.851 918.694 464.923 914.691 463.871 C 885.537 456.212 856.021 450.473 826.487 444.477 L 828.667 441.085 z"/>
<path transform="translate(0,0)" fill="rgb(60,149,191)" d="M 767.713 360.965 C 786.014 381.601 812.422 418.265 828.667 441.085 L 826.487 444.477 C 820.504 447.109 816.762 448.674 811.204 452.275 C 795.549 447.642 661.362 389.379 657.615 384.667 L 659 383.178 C 672.77 380.205 686.596 376.11 700.269 373.264 C 722.342 368.669 745.432 364.474 767.713 360.965 z"/>
<path transform="translate(0,0)" fill="rgb(37,108,166)" d="M 738.448 722.08 L 739.046 722.217 L 739.536 723.255 C 733.709 731.188 720.733 744.326 713.584 751.966 L 659.223 810.016 C 645.821 824.342 631.493 837.897 621.481 854.855 C 609.282 875.518 598.121 896.533 586.843 917.682 C 566.722 955.951 545.957 993.878 524.557 1031.45 L 523.858 1031.66 C 522.407 1028.32 535.68 816.41 537.091 799.534 C 557.655 790.601 582.284 781.584 603.329 773.404 C 648.239 755.957 693.28 738.849 738.448 722.08 z"/>
<path transform="translate(0,0)" fill="rgb(13,37,79)" d="M 640.341 973.03 C 642.553 986.75 640.821 1003.6 640.699 1017.76 L 639.891 1111.53 C 639.463 1159.69 642.676 1204.27 644.277 1252.19 C 631.793 1229.63 618.224 1207.3 605.873 1184.74 C 595.127 1164.69 536.003 1068.18 533.941 1055.72 C 541.65 1046.88 630.245 978.781 640.341 973.03 z"/>
<path transform="translate(0,0)" fill="rgb(30,78,131)" d="M 450.511 453.737 C 451.083 454.491 459.252 544.493 465.194 557.338 C 474.729 577.951 485.581 597.784 497.626 617.221 C 452.6 630.714 400.921 650.039 356.27 665.938 L 321.368 679.889 C 345.746 640.078 367.87 598.666 391.631 558.47 C 412.019 523.98 431.322 488.901 450.511 453.737 z"/>
<path transform="translate(0,0)" fill="rgb(19,55,104)" d="M 725.995 543.472 L 727.654 542.73 L 729.117 543.165 L 730.194 544.252 C 726.982 552.345 710.503 581.447 705.236 591.263 C 687.205 624.875 668.348 668.43 649.151 700.494 C 624.728 684.328 600.721 667.542 577.154 650.152 C 567.35 643.01 550.203 631.104 542.224 622.73 C 556.286 614.267 581.394 604.727 597.072 598.141 C 628.025 584.985 659.077 572.061 690.226 559.372 C 695.141 557.389 724.65 546.563 727.185 544.603 L 725.995 543.472 z"/>
<path transform="translate(0,0)" fill="rgb(19,55,104)" d="M 816.851 550.075 C 823.407 552.236 845.86 564.9 853.122 568.362 C 869.436 576.138 886.02 583.763 902.324 591.531 C 875.514 604.408 844.162 617.436 816.684 629.396 C 783.831 644.013 750.852 658.346 717.752 672.393 C 696.774 681.991 675.533 689.83 654.474 699.615 C 667.72 685.631 688.842 667.165 703.327 653.792 L 816.851 550.075 z"/>
<path transform="translate(0,0)" fill="rgb(37,108,166)" d="M 538.384 323.818 L 603.75 291.388 C 613.913 286.335 627.799 278.903 637.994 274.541 L 712.449 313.651 C 724.659 320.039 751.63 333.632 762.163 341.451 C 708.224 335.785 652.858 336.093 598.719 330.196 C 588.271 329.057 544.734 325.053 538.313 326.761 L 538.384 323.818 z"/>
<path transform="translate(0,0)" fill="rgb(37,108,166)" d="M 807.544 338.772 C 811.048 339.979 832.658 351.246 835.048 352.932 C 846.113 360.736 924.715 394.418 928.12 400.778 C 927.957 404.314 926.516 405.811 924.541 408.8 C 914.226 416.838 870.09 413.068 857.111 410.595 C 843.66 393.576 834.13 372.891 821.032 355.5 C 816.694 349.739 812.19 344.278 807.544 338.772 z"/>
<path transform="translate(0,0)" fill="rgb(30,78,131)" d="M 479.024 359.215 C 479.975 360.875 475.178 369.356 474.104 371.646 C 463.958 393.272 458.153 412.197 453.104 435.381 C 432.686 432.445 412.361 428.896 392.156 424.74 L 379.313 421.911 C 391.901 413.966 409.164 406.648 421.347 398.517 C 440.752 385.566 459.434 372.101 479.024 359.215 z"/>
<path transform="translate(0,0)" fill="rgb(13,37,79)" d="M 1929.2 72.5424 C 1927.26 85.349 1926.43 98.6235 1925.39 111.605 C 1920.01 178.878 1908.49 245.371 1894.91 311.422 C 1893.69 317.353 1892.11 324.353 1888.74 329.379 C 1866.92 361.731 1840.55 395.677 1817.02 426.923 C 1801.39 447.683 1780.25 476.473 1762.91 495.439 C 1758.82 499.548 1754.88 503.277 1750 506.443 C 1708.46 533.399 1666.09 559.377 1624.49 586.239 C 1610.13 595.548 1595.82 604.928 1581.55 614.38 C 1578.66 616.287 1565.26 625.45 1562.78 626.442 C 1545.47 638.528 1523.77 653.661 1508.34 667.652 C 1497.98 673.367 1485.87 700.188 1479.88 711.22 L 1442.04 780.363 C 1445.18 779.253 1450.31 777.265 1453.37 776.683 C 1451.41 778.081 1447.39 780.301 1446.92 782.473 C 1445.31 789.884 1441.5 794.515 1437.58 800.473 C 1436.7 801.813 1440.16 801.142 1439.15 806.266 L 1438.64 806.394 L 1438.17 804.683 C 1434.37 806.707 1410.05 861.67 1405.87 868.911 C 1401.54 876.415 1397.26 882.434 1391.05 888.869 L 1392.07 890.369 L 1400.12 882.434 C 1403.79 882.836 1404.9 882.742 1408.6 882.377 L 1410.26 882.156 C 1419.32 883.726 1472.4 870.32 1485.82 867.423 C 1525.12 858.939 1564.74 851.147 1603.9 842.067 C 1663.46 828.256 1721.85 810.492 1780.3 792.558 L 1789.71 788.642 C 1739.53 858.32 1685.48 918.878 1614.74 968.013 C 1600.5 977.908 1585.65 991.07 1569.17 996.3 C 1549.19 1002.03 1519.47 1006.39 1498.51 1010.31 L 1358.8 1037.18 C 1330.31 1042.73 1290.39 1049.65 1263.19 1058.32 L 1263.98 1059.64 C 1293.26 1062.32 1321.25 1066.14 1350.26 1069.26 C 1390.1 1073.49 1429.99 1077.11 1469.94 1080.11 C 1492.37 1081.79 1518.28 1079.19 1538.22 1080.85 C 1540.87 1080.5 1541.48 1079.9 1543.22 1081 C 1536.78 1087.88 1509.83 1102.4 1500.38 1108.25 C 1472.19 1125.7 1442.83 1143.26 1412.26 1156.16 C 1394.26 1163.76 1370 1169.47 1350.78 1174.36 C 1327.64 1180.32 1304.45 1186.11 1281.22 1191.73 C 1274.43 1192.76 1255.19 1177.22 1246.78 1174.18 C 1222.6 1165.43 1059.55 1137.41 1038.45 1141.25 C 1025.2 1143.66 972.325 1170.84 955.939 1178.56 L 799.123 1253.47 C 772.582 1266.11 732.267 1286.6 705.746 1296.69 C 699.221 1300.33 692.852 1303.08 686.049 1306.12 L 906.409 1042.05 C 961.099 976.03 1016.59 917.426 1052.09 837.498 C 1062.27 814.558 1083.34 756.1 1096.66 735.583 C 1100.72 729.331 1150.03 700.743 1158.93 694.925 C 1209.32 661.984 1262.06 630.967 1310.9 595.568 C 1322.74 586.969 1337.24 569.973 1347.55 559.094 C 1366.49 539.412 1384.99 519.308 1403.03 498.797 C 1415.47 484.858 1429.64 468.134 1442.56 454.93 C 1450.06 445.65 1457.84 436.248 1465.18 426.873 C 1458.96 444.124 1444.11 507.586 1442.2 526.13 C 1451.4 524.594 1561.65 434.242 1578.49 420.651 C 1644.43 367.436 1722.07 312.95 1781.11 252.065 C 1830.11 201.54 1877.29 143.375 1919.03 87.1808 L 1929.2 72.5424 z"/>
<path transform="translate(0,0)" fill="rgb(37,108,166)" d="M 686.049 1306.12 L 906.409 1042.05 C 961.099 976.03 1016.59 917.426 1052.09 837.498 C 1062.27 814.558 1083.34 756.1 1096.66 735.583 C 1100.72 729.331 1150.03 700.743 1158.93 694.925 C 1209.32 661.984 1262.06 630.967 1310.9 595.568 C 1322.74 586.969 1337.24 569.973 1347.55 559.094 C 1366.49 539.412 1384.99 519.308 1403.03 498.797 C 1415.47 484.858 1429.64 468.134 1442.56 454.93 C 1440.04 463.819 1428.14 482.47 1422.53 490.57 C 1377.53 555.586 1339.32 626.523 1291.81 689.386 C 1290.31 691.367 1263.66 707.387 1259.84 709.735 L 1202.22 745.011 C 1190.84 751.896 1167.2 765.18 1159.88 775.27 C 1134.07 810.877 1118.48 855.309 1094.18 891.832 C 1042.4 969.656 980.694 1039.08 917.606 1107.6 C 923.953 1121.52 933.029 1137.09 940.236 1150.79 C 944.116 1158.16 951.521 1172.62 955.939 1178.56 L 799.123 1253.47 C 772.582 1266.11 732.267 1286.6 705.746 1296.69 C 699.221 1300.33 692.852 1303.08 686.049 1306.12 z"/>
<path transform="translate(0,0)" fill="rgb(19,55,104)" d="M 705.746 1296.69 L 704.337 1296.23 C 706.19 1293.22 714.519 1293.39 715.902 1288.03 L 714.587 1286.55 C 712.387 1288.24 710.713 1289.44 708.378 1290.93 L 707.321 1290.19 C 728.11 1270.83 754.643 1249.49 776.677 1230.99 C 803.447 1208.37 829.989 1185.48 856.299 1162.32 C 876.884 1144.37 897.923 1126.5 917.606 1107.6 C 923.953 1121.52 933.029 1137.09 940.236 1150.79 C 944.116 1158.16 951.521 1172.62 955.939 1178.56 L 799.123 1253.47 C 772.582 1266.11 732.267 1286.6 705.746 1296.69 z"/>
<path transform="translate(0,0)" fill="rgb(30,78,131)" d="M 1929.2 72.5424 C 1927.26 85.349 1926.43 98.6235 1925.39 111.605 C 1920.01 178.878 1908.49 245.371 1894.91 311.422 C 1893.69 317.353 1892.11 324.353 1888.74 329.379 C 1866.92 361.731 1840.55 395.677 1817.02 426.923 C 1801.39 447.683 1780.25 476.473 1762.91 495.439 C 1758.82 499.548 1754.88 503.277 1750 506.443 C 1708.46 533.399 1666.09 559.377 1624.49 586.239 C 1610.13 595.548 1595.82 604.928 1581.55 614.38 C 1578.66 616.287 1565.26 625.45 1562.78 626.442 L 1562.01 625.582 C 1564.37 622.357 1576.7 615.961 1581.39 612.112 L 1581.42 610.594 C 1577.81 608.371 1574.01 605.509 1570.08 606.196 C 1567.2 609.387 1565.5 610.736 1562.19 613.436 L 1752.15 394.453 C 1757.8 387.901 1769.37 375.841 1768.73 366.981 C 1769.89 365.035 1774.96 360.1 1776.83 357.772 C 1797.77 331.806 1813.61 301.595 1829.2 272.066 C 1850.19 231.885 1870.54 191.375 1890.26 150.552 L 1910.17 110.81 C 1913.27 104.637 1920.4 93.4468 1919.03 87.1808 L 1929.2 72.5424 z"/>
<path transform="translate(0,0)" fill="rgb(37,108,166)" d="M 1771.25 378.953 C 1778.39 375.206 1803.9 364.562 1811.77 361.382 C 1830.23 353.92 1870.34 333.48 1888.74 329.379 C 1866.92 361.731 1840.55 395.677 1817.02 426.923 C 1801.39 447.683 1780.25 476.473 1762.91 495.439 C 1760.63 488.19 1770.27 394.796 1771.25 378.953 z"/>
<path transform="translate(0,0)" fill="url(#Gradient4)" d="M 1442.2 526.13 C 1451.4 524.594 1561.65 434.242 1578.49 420.651 C 1644.43 367.436 1722.07 312.95 1781.11 252.065 C 1830.11 201.54 1877.29 143.375 1919.03 87.1808 C 1920.4 93.4468 1913.27 104.637 1910.17 110.81 L 1890.26 150.552 C 1870.54 191.375 1850.19 231.885 1829.2 272.066 C 1813.61 301.595 1797.77 331.806 1776.83 357.772 C 1774.96 360.1 1769.89 365.035 1768.73 366.981 C 1705.62 421.262 1635.42 466.945 1567.82 515.186 C 1562.41 515.403 1553.14 522.06 1549.7 526.37 C 1536.17 529.139 1449.65 539.944 1438.26 537.793 C 1440.27 534.177 1441.75 531.304 1443.47 527.551 L 1442.2 526.13 z"/>
<path transform="translate(0,0)" fill="rgb(37,108,166)" d="M 1780.3 792.558 L 1789.71 788.642 C 1739.53 858.32 1685.48 918.878 1614.74 968.013 C 1600.5 977.908 1585.65 991.07 1569.17 996.3 C 1563.53 987.085 1566.06 943.23 1564.79 928.651 L 1563.22 927.337 L 1567.54 925.584 C 1565.66 924.862 1555.51 922.648 1552.58 921.883 C 1537.34 917.808 1522.03 913.992 1506.66 910.437 C 1489.61 906.521 1413.28 891.574 1404.87 884.549 L 1410.41 884.639 L 1408.6 882.377 L 1410.26 882.156 C 1419.32 883.726 1472.4 870.32 1485.82 867.423 C 1525.12 858.939 1564.74 851.147 1603.9 842.067 C 1663.46 828.256 1721.85 810.492 1780.3 792.558 z"/>
<path transform="translate(0,0)" fill="rgb(19,55,104)" d="M 1780.3 792.558 L 1789.71 788.642 C 1739.53 858.32 1685.48 918.878 1614.74 968.013 C 1600.5 977.908 1585.65 991.07 1569.17 996.3 C 1563.53 987.085 1566.06 943.23 1564.79 928.651 L 1563.22 927.337 L 1567.54 925.584 C 1596.53 913.613 1764.34 813.461 1780.3 792.558 z"/>
<path transform="translate(0,0)" fill="rgb(19,55,104)" d="M 1257.65 1059.88 L 1263.19 1058.32 L 1263.98 1059.64 C 1293.26 1062.32 1321.25 1066.14 1350.26 1069.26 C 1390.1 1073.49 1429.99 1077.11 1469.94 1080.11 C 1492.37 1081.79 1518.28 1079.19 1538.22 1080.85 C 1540.87 1080.5 1541.48 1079.9 1543.22 1081 C 1536.78 1087.88 1509.83 1102.4 1500.38 1108.25 C 1472.19 1125.7 1442.83 1143.26 1412.26 1156.16 C 1394.26 1163.76 1370 1169.47 1350.78 1174.36 C 1327.64 1180.32 1304.45 1186.11 1281.22 1191.73 C 1287.06 1176.74 1318.78 1147.21 1331.54 1132.99 C 1318.47 1129.14 1303.75 1126.65 1290.31 1123.71 C 1268.78 1118.86 1247.22 1114.12 1225.64 1109.5 C 1202.51 1104.72 1189.02 1104.27 1167.07 1094.3 C 1169.91 1092.58 1172.67 1093.17 1176.74 1092.59 C 1194.91 1086.07 1247.61 1077.53 1257.65 1059.88 z"/>
<path transform="translate(0,0)" fill="rgb(60,149,191)" d="M 1257.65 1059.88 L 1263.19 1058.32 L 1263.98 1059.64 C 1293.26 1062.32 1321.25 1066.14 1350.26 1069.26 C 1390.1 1073.49 1429.99 1077.11 1469.94 1080.11 C 1492.37 1081.79 1518.28 1079.19 1538.22 1080.85 C 1497.83 1095.34 1450.94 1106.19 1409.06 1115.43 C 1383.86 1120.98 1357.5 1127.19 1332.18 1131.73 C 1316.01 1115.5 1297.92 1100.46 1281.47 1084.45 C 1274.17 1077.34 1263.36 1068.06 1257.65 1059.88 z"/>
<path transform="translate(0,0)" fill="rgb(30,78,131)" d="M 1400.12 882.434 C 1403.79 882.836 1404.9 882.742 1408.6 882.377 L 1410.41 884.639 L 1404.87 884.549 C 1413.28 891.574 1489.61 906.521 1506.66 910.437 C 1522.03 913.992 1537.34 917.808 1552.58 921.883 C 1555.51 922.648 1565.66 924.862 1567.54 925.584 L 1563.22 927.337 C 1538.96 934.706 1506.87 940.77 1481.74 946.096 C 1444.89 953.99 1407.9 961.238 1370.8 967.837 C 1348.72 971.655 1326.31 973.907 1304.43 977.798 C 1259.86 985.721 1215.36 995.1 1171.34 1005.6 C 1165.8 1006.92 1138.65 1016.29 1135.06 1014.98 C 1144.82 1008.53 1235.78 975.489 1252.11 970.735 C 1268.02 966.1 1323.42 956.299 1338.75 944.218 C 1353.83 932.336 1377.66 905.138 1392.07 890.369 L 1400.12 882.434 z"/>
<path transform="translate(0,0)" fill="url(#Gradient3)" d="M 1549.7 526.37 C 1553.14 522.06 1562.41 515.403 1567.82 515.186 C 1559.85 522.313 1547.8 528.213 1541.57 535.357 C 1518.05 550.22 1344.07 679.189 1337.39 679.697 C 1361.25 643.25 1389.09 608.049 1413.87 572.127 C 1421.57 560.961 1429.99 548.34 1438.26 537.793 C 1449.65 539.944 1536.17 529.139 1549.7 526.37 z"/>
<path transform="translate(0,0)" fill="rgb(19,55,104)" d="M 1337.39 679.697 C 1344.07 679.189 1518.05 550.22 1541.57 535.357 C 1521.93 573.098 1506.03 609.112 1480.99 643.944 C 1456.79 652.712 1431.47 658.007 1406.59 664.764 C 1383.36 671.072 1355.54 681.739 1332.28 686.072 C 1333.39 684.587 1336.12 680.573 1337.39 679.697 z"/>
<path transform="translate(0,0)" fill="rgb(19,55,104)" d="M 1167.07 1094.3 L 1159.12 1092.11 L 1158.82 1091.44 C 1163.99 1090.98 1171.44 1091.97 1176.74 1092.59 C 1172.67 1093.17 1169.91 1092.58 1167.07 1094.3 z"/>
<path transform="translate(0,0)" fill="url(#Gradient2)" d="M 1228.97 809.485 C 1272.36 781.935 1319.01 758.382 1363.86 733.561 C 1387.65 720.396 1437.19 693.913 1457.03 677.17 C 1445.38 709.387 1435.5 753.157 1425.98 786.527 C 1424.59 789.895 1423.34 793.501 1420 795.11 C 1405.43 802.132 1390.15 808.558 1375.39 815.186 L 1266.36 863.375 C 1230.26 879.403 1196.55 899.028 1161.29 915.901 C 1171.77 895.891 1183.74 875.614 1195.34 856.183 C 1204.16 841.391 1215.02 819.11 1228.97 809.485 z"/>
<path transform="translate(0,0)" fill="rgb(30,78,131)" d="M 1228.97 809.485 C 1228.12 810.982 1227.84 811.533 1227.21 813.131 C 1230.35 814.246 1406.78 789.79 1425.98 786.527 C 1424.59 789.895 1423.34 793.501 1420 795.11 C 1405.43 802.132 1390.15 808.558 1375.39 815.186 L 1266.36 863.375 C 1230.26 879.403 1196.55 899.028 1161.29 915.901 C 1171.77 895.891 1183.74 875.614 1195.34 856.183 C 1204.16 841.391 1215.02 819.11 1228.97 809.485 z"/>
<path transform="translate(0,0)" fill="rgb(30,78,131)" d="M 1357.82 883.193 L 1358.31 883.45 C 1354.53 891.574 1328.01 919.687 1320.93 927.634 C 1309.39 940.674 1295.11 948.004 1280.21 955.335 C 1252.32 969.06 1234.94 970.224 1204.45 968.247 C 1182.79 966.841 1155.46 963.934 1133.55 964.482 L 1132.25 964.52 L 1127.61 964.719 L 1127.23 964.04 C 1147.34 953.449 1183.1 946.374 1205.73 938.318 C 1256.53 920.237 1308.6 905.374 1357.82 883.193 z"/>
<path transform="translate(0,0)" fill="rgb(2,8,41)" d="M 1204.76 1053.45 C 1208.27 1052.84 1208.75 1052.54 1211.92 1053.76 C 1211.54 1054.08 1211.02 1054.56 1210.54 1054.67 C 1171.98 1063.38 1138.29 1075.86 1099.38 1062.05 C 1095.88 1060.78 1092.06 1059.81 1090.1 1056.8 L 1091.04 1055.66 C 1115.7 1058.78 1178.08 1054.69 1204.76 1053.45 z"/>
<path transform="translate(0,0)" fill="url(#Gradient1)" d="M 1929.4 424.438 L 1940.43 414.479 C 1922.23 471.073 1899.82 526.23 1873.41 579.489 C 1866.03 594.56 1856.05 617.418 1844.01 628.405 C 1817.27 655.892 1787.04 703.72 1757.14 724.166 C 1745.81 730.438 1730.61 736.659 1718.6 741.988 C 1697.2 751.529 1675.74 760.96 1654.24 770.28 L 1515.16 831.744 C 1485.86 844.424 1436.51 865.778 1410.26 882.156 L 1408.6 882.377 C 1404.9 882.742 1403.79 882.836 1400.12 882.434 L 1392.07 890.369 L 1391.05 888.869 C 1397.26 882.434 1401.54 876.415 1405.87 868.911 C 1410.05 861.67 1434.37 806.707 1438.17 804.683 L 1438.64 806.394 L 1439.15 806.266 C 1440.16 801.142 1436.7 801.813 1437.58 800.473 C 1441.5 794.515 1445.31 789.884 1446.92 782.473 C 1447.39 780.301 1451.41 778.081 1453.37 776.683 C 1450.31 777.265 1445.18 779.253 1442.04 780.363 L 1479.88 711.22 C 1485.87 700.188 1497.98 673.367 1508.34 667.652 L 1512.27 667.155 C 1521.14 661.321 1553.93 647.198 1565.32 641.984 C 1592.47 629.288 1619.54 616.438 1646.54 603.434 C 1688.67 583.307 1741.98 560.048 1780.59 536.167 C 1831 504.991 1883.51 462.01 1929.4 424.438 z"/>
<path transform="translate(0,0)" fill="rgb(60,149,191)" d="M 1929.4 424.438 C 1929.21 426.23 1928.68 428.921 1927.49 430.373 C 1869.87 501.188 1812.29 572.158 1747.72 636.861 C 1745.8 638.78 1742.72 641.964 1741.09 644.028 C 1706.86 644.702 1670.83 650.485 1638.62 653.419 C 1619.38 655.171 1523.66 670.244 1512.27 667.155 C 1521.14 661.321 1553.93 647.198 1565.32 641.984 C 1592.47 629.288 1619.54 616.438 1646.54 603.434 C 1688.67 583.307 1741.98 560.048 1780.59 536.167 C 1831 504.991 1883.51 462.01 1929.4 424.438 z"/>
<path transform="translate(0,0)" fill="rgb(30,78,131)" d="M 1512.27 667.155 C 1523.66 670.244 1619.38 655.171 1638.62 653.419 C 1670.83 650.485 1706.86 644.702 1741.09 644.028 C 1732.04 654.476 1649.56 688.785 1628.98 698.024 L 1503.17 755.388 C 1494.1 759.419 1458.48 773.085 1453.37 776.683 C 1450.31 777.265 1445.18 779.253 1442.04 780.363 L 1479.88 711.22 C 1485.87 700.188 1497.98 673.367 1508.34 667.652 L 1512.27 667.155 z"/>
<path transform="translate(0,0)" fill="rgb(30,78,131)" d="M 1741.16 652.077 C 1757.08 648.718 1834.86 627.33 1844.01 628.405 C 1817.27 655.892 1787.04 703.72 1757.14 724.166 C 1754.89 719.181 1751.78 702.124 1750.61 696.102 C 1747.68 681.067 1744.8 666.977 1741.16 652.077 z"/>
<path transform="translate(0,0)" fill="rgb(2,8,41)" d="M 479.183 139.87 C 491.395 144.037 504.451 149.571 517.115 154.031 C 516.215 155.555 515.699 156.302 515.077 157.97 L 515.974 160.563 C 505.33 155.066 488.504 146.726 479.183 139.87 z"/>
</svg>